<svg id="visual" viewBox="0 0 1920 1090" width="1920" height="1090" xmlns="http://www.w3.org/2000/svg" xmlns:xlink="http://www.w3.org/1999/xlink" version="1.1"><path d="M0 409L40 414.7C80 420.3 160 431.7 240 511.5C320 591.3 400 739.7 480 697.5C560 655.3 640 422.7 720 361.3C800 300 880 410 960 438.8C1040 467.7 1120 415.3 1200 377.3C1280 339.3 1360 315.7 1440 356.3C1520 397 1600 502 1680 488.3C1760 474.7 1840 342.3 1880 276.2L1920 210L1920 1091L1880 1091C1840 1091 1760 1091 1680 1091C1600 1091 1520 1091 1440 1091C1360 1091 1280 1091 1200 1091C1120 1091 1040 1091 960 1091C880 1091 800 1091 720 1091C640 1091 560 1091 480 1091C400 1091 320 1091 240 1091C160 1091 80 1091 40 1091L0 1091Z" fill="#040007" stroke-linecap="round" stroke-linejoin="miter"></path></svg>