<svg id="visual" viewBox="0 0 900 600" width="900" height="600" xmlns="http://www.w3.org/2000/svg" xmlns:xlink="http://www.w3.org/1999/xlink" version="1.1"><rect x="0" y="0" width="900" height="600" fill="#8d67ca"></rect><path d="M0 127L18.8 165.3C37.7 203.7 75.3 280.3 112.8 324.2C150.3 368 187.7 379 225.2 399.8C262.7 420.7 300.3 451.3 337.8 406.7C375.3 362 412.7 242 450.2 228.3C487.7 214.7 525.3 307.3 562.8 311.7C600.3 316 637.7 232 675.2 227.7C712.7 223.3 750.3 298.7 787.8 327C825.3 355.3 862.7 336.7 881.3 327.3L900 318L900 0L881.3 0C862.7 0 825.3 0 787.8 0C750.3 0 712.7 0 675.2 0C637.7 0 600.3 0 562.8 0C525.3 0 487.7 0 450.2 0C412.7 0 375.3 0 337.8 0C300.3 0 262.7 0 225.2 0C187.7 0 150.3 0 112.8 0C75.3 0 37.7 0 18.8 0L0 0Z" fill="#040007" stroke-linecap="round" stroke-linejoin="miter"></path></svg>