<svg id="visual" viewBox="0 0 1920 1090" width="1920" height="1090" xmlns="http://www.w3.org/2000/svg" xmlns:xlink="http://www.w3.org/1999/xlink" version="1.1"><path d="M0 93L40 186.2C80 279.3 160 465.7 240 486C320 506.3 400 360.7 480 373.8C560 387 640 559 720 603.5C800 648 880 565 960 464.3C1040 363.7 1120 245.3 1200 172C1280 98.7 1360 70.3 1440 78.3C1520 86.3 1600 130.7 1680 150C1760 169.3 1840 163.7 1880 160.8L1920 158L1920 0L1880 0C1840 0 1760 0 1680 0C1600 0 1520 0 1440 0C1360 0 1280 0 1200 0C1120 0 1040 0 960 0C880 0 800 0 720 0C640 0 560 0 480 0C400 0 320 0 240 0C160 0 80 0 40 0L0 0Z" fill="#040007" stroke-linecap="round" stroke-linejoin="miter"></path></svg>