<svg id="visual" viewBox="0 0 1920 1090" width="1920" height="1090" xmlns="http://www.w3.org/2000/svg" xmlns:xlink="http://www.w3.org/1999/xlink" version="1.1"><rect x="0" y="0" width="1920" height="1090" fill="#8d67ca"></rect><path d="M0 232L40 301.5C80 371 160 510 240 589.5C320 669 400 689 480 726.8C560 764.7 640 820.3 720 739.2C800 658 880 440 960 415.2C1040 390.3 1120 558.7 1200 566.7C1280 574.7 1360 422.3 1440 414.7C1520 407 1600 544 1680 595.3C1760 646.7 1840 612.3 1880 595.2L1920 578L1920 0L1880 0C1840 0 1760 0 1680 0C1600 0 1520 0 1440 0C1360 0 1280 0 1200 0C1120 0 1040 0 960 0C880 0 800 0 720 0C640 0 560 0 480 0C400 0 320 0 240 0C160 0 80 0 40 0L0 0Z" fill="#040007" stroke-linecap="round" stroke-linejoin="miter"></path></svg>